PathFileType	4	(X/Y/Z)	pose_F01_0-97.trc
DataRate	CameraRate	NumFrames	NumMarkers	Units	OrigDataRate	OrigDataStartFrame	OrigNumFrames
30	30	6	21	m	30	84	97
Frame#	Time	CHip			RHip			RKnee			RAnkle			RBigToe			RSmallToe			RHeel			LHip			LKnee			LAnkle			LBigToe			LSmallToe			LHeel			Neck			Nose			RShoulder			RElbow			RWrist			LShoulder			LElbow			LWrist			
		X1	Y1	Z1	X2	Y2	Z2	X3	Y3	Z3	X4	Y4	Z4	X5	Y5	Z5	X6	Y6	Z6	X7	Y7	Z7	X8	Y8	Z8	X9	Y9	Z9	X10	Y10	Z10	X11	Y11	Z11	X12	Y12	Z12	X13	Y13	Z13	X14	Y14	Z14	X15	Y15	Z15	X16	Y16	Z16	X17	Y17	Z17	X18	Y18	Z18	X19	Y19	Z19	X20	Y20	Z20	X21	Y21	Z21	
84	2.8	-0.3080732891661807	1.816565925306088	-0.5374464413829765	-0.3179402557624558	1.810427794426311	-0.4824132312944244	-0.3289018818683289	1.68482455331032	-0.4937510039589169	-0.4945715561141373	1.5623544839384962	-0.9327935440419788	-0.47859766712281404	1.524309970471089	-0.9813421519418514	-0.3113763838656472	1.5380673242458038	-0.4621305372154947	-0.5038967183065809	1.5502895754160686	-0.9461597403629104	-0.3000351012911053	1.8208419287517008	-0.5933289334758622	-0.2867568319473721	1.6889281022563727	-0.5909489186725887				-0.391811651407078	1.5388783308033591	-0.9267323449245731				-0.4340420280474851	1.5665475008319354	-0.8878844210353509	-0.31693610589377585	1.9749073033398663	-0.5496646102664378	-0.27702494590475113	2.0444255647471112	-0.5551376056352758	-0.32316334500069915	1.969873168961164	-0.46959505424223336	-0.3205044650402115	1.8815050589015407	-0.44812838030378815	-0.31043202087226635	1.8066367558801235	-0.4275248742489995	-0.3058267407316946	1.981035385524198	-0.6368713830948075	-0.3021756723857037	1.892521840807366	-0.6606461895770523	-0.2892326335947045	1.8178589173651616	-0.6625647484810355
85	2.8333333333333335	-0.30573366610639163	1.814409360799883	-0.5396781835221972	-0.3138735008449636	1.8092918989280826	-0.48657975455179464	-0.32775379364845125	1.6855025112274915	-0.49499348486830663	-0.4945715561141373	1.5623544839384962	-0.9327935440419788	-0.47859766712281404	1.524309970471089	-0.9813421519418514	-0.3113794428257369	1.5380694230056295	-0.46212552153562675	-0.5038967183065809	1.5502895754160686	-0.9461597403629104	-0.2895542782359161	1.818762441780906	-0.6040068898607343	-0.28318935868273487	1.6882098019432445	-0.5978084163441401				-0.391811651407078	1.5388783308033591	-0.9267323449245731				-0.4340420280474851	1.5665475008319354	-0.8878844210353509	-0.31388062346799284	1.9765774208629445	-0.5573917701864726	-0.2760167417344132	2.0460227532656377	-0.5608460311299404	-0.3211319620802218	1.9726380568407837	-0.4722626575153327	-0.32020184325298273	1.8827792742970442	-0.4484862874042874	-0.30580071612621174	1.8066511439771156	-0.43704561021745897	-0.30674161500961816	1.9809145301169777	-0.6399915766886863	-0.2999531475071033	1.883741938944018	-0.6629012104370843	-0.28624578345628804	1.8176985991633718	-0.6628982650236432
86	2.8666666666666667	-0.30566626583950796	1.8169359553958604	-0.5399671592639431	-0.315694444178701	1.8110998145712607	-0.4848164983499839	-0.3266057054285736	1.6861804691446631	-0.49623596577769635	-0.4945715561141373	1.5623544839384962	-0.9327935440419788	-0.47859766712281404	1.524309970471089	-0.9813421519418514	-0.31138250178582655	1.5380715217654553	-0.46212050585575887	-0.5038967183065809	1.5502895754160686	-0.9461597403629104	-0.28943665250623274	1.8215214845815577	-0.6043526776509511	-0.2796218854180976	1.6874915016301162	-0.6046679140156914				-0.391811651407078	1.5388783308033591	-0.9267323449245731				-0.4340420280474851	1.5665475008319354	-0.8878844210353509	-0.30776829183978904	1.9785701171185268	-0.564273686531452	-0.26983472496467825	2.0474477722237094	-0.5675057874486886	-0.32014689476098895	1.9727612845425013	-0.47752296106915193	-0.3183653178163719	1.8838807492512988	-0.450866281346491	-0.2985656610001053	1.801105467894227	-0.440426599034526	-0.3004640694681723	1.9820809282527116	-0.6468598639677842	-0.29988208473207245	1.88334853095034	-0.6630694340826933	-0.2832589333178716	1.8175382809615823	-0.6632317815662511
87	2.9	-0.30093113489105144	1.8150299212411378	-0.5493292913612524	-0.3141867986937988	1.810879233613946	-0.48687505864763253	-0.3246512081932104	1.6845048042133683	-0.491458321687858	-0.4945715561141373	1.5623544839384962	-0.9327935440419788	-0.47859766712281404	1.524309970471089	-0.9813421519418514	-0.3113855607459162	1.538073620525281	-0.46211549017589093	-0.5038967183065809	1.5502895754160686	-0.9461597403629104	-0.2896312567121546	1.8219469278787594	-0.6127443814791979	-0.2760544121534603	1.686773201316988	-0.6115274116872428				-0.391811651407078	1.5388783308033591	-0.9267323449245731				-0.4340420280474851	1.5665475008319354	-0.8878844210353509	-0.30675608862208764	1.979978552080029	-0.5699907931840235	-0.2634881504587915	2.0516160046679643	-0.5831094161241078	-0.3134422469844938	1.9757819526992795	-0.48998503074295596	-0.31424564559532947	1.8851521772344912	-0.45537259131194213	-0.29917290761263526	1.807263482562794	-0.43524219771217176	-0.2971721052867824	1.9834932457295966	-0.6546579070772071	-0.29889367374550746	1.8906245529392622	-0.6686602350312455	-0.2802720831794551	1.8173779627597926	-0.6635652981088588
88	2.933333333333333	-0.2905017287684627	1.8132279125038282	-0.5599090123265587	-0.3000536132949888	1.8090574066595657	-0.5016977002553857	-0.32269671095784724	1.6828291392820733	-0.4866806775980197	-0.3348360812412375	1.5715715018776155	-0.5003769836930402	-0.47859766712281404	1.524309970471089	-0.9813421519418514	-0.3113886197060059	1.5380757192851067	-0.462110474496023	-0.5038967183065809	1.5502895754160686	-0.9461597403629104	-0.27374060250230936	1.8167222644903038	-0.6244922318896973	-0.2724869388888231	1.68605490100386	-0.6183869093587941				-0.391811651407078	1.5388783308033591	-0.9267323449245731				-0.4340420280474851	1.5665475008319354	-0.8878844210353509	-0.2933158139940313	1.9805792853555113	-0.5887131595088102	-0.2532469759031731	2.051105393413733	-0.5949040877189438	-0.3065926583431663	1.975109392621617	-0.5018512206393329	-0.30357941588025056	1.8817771203473208	-0.47095414496022997	-0.28442655632324976	1.8081514117823012	-0.44706314586479706	-0.27988835155565184	1.9854021753399775	-0.6727051572036988	-0.28327182705301684	1.8859108484737865	-0.6926029085893666	-0.26114392302512823	1.8116646816666233	-0.6748365216867867
89	2.966666666666667	-0.28221414950079493	1.8132429850465182	-0.5773037271128388	-0.29702823633624154	1.8091993615062223	-0.5094649731587869	-0.3087224303307816	1.677031758712202	-0.47848003617149143	-0.33493356677576946	1.5722885672445055	-0.5002105502599764	-0.47859766712281404	1.524309970471089	-0.9813421519418514	-0.3113916786660956	1.5380778180449324	-0.46210545881615506	-0.34379963034373706	1.5640383501471689	-0.5080301663388818	-0.2717047183379031	1.8154793976278236	-0.6350464718537028	-0.2656349094578918	1.6863291380362613	-0.6251996925200621				-0.391811651407078	1.5388783308033591	-0.9267323449245731				-0.4340420280474851	1.5665475008319354	-0.8878844210353509	-0.2870838889956184	1.9806309956691042	-0.5954376645232567	-0.24701529450063064	2.0522690158088355	-0.6020336705470118	-0.2975861944882275	1.9768525389696268	-0.5161895056837543	-0.2987629134976503	1.8877779503369985	-0.4817157141433505	-0.26775389527754884	1.82275384521595	-0.4633469998110681	-0.2733473690131554	1.9870404666880197	-0.6798031925093504	-1.161809424804553	1.820425666462614	0.181757545644942	-0.24971000202675997	1.8195982794381214	-0.6686446118780369
